PathFileType	4	(X/Y/Z)	C:\Users\Basilio\Documents\Thesis Gigler\squatting_fais\c3dfiles\077\SJ_pre1\markers_experimental.trc
DataRate	CameraRate	NumFrames	NumMarkers	Units	OrigDataRate	OrigDataStartFrame	OrigNumFrames
200.000000	200.000000	4	60	mm	200.000000	1170	1561
Frame#	Time	FHD			LBHD			RBHD			C7			T10			CLAV			LSHO			LUUPA			LMUPA			LDUPA			LLEP			LMEP			LRAD			LUL			LRFIN			RSHO			RUPA1			RMUPA			RDUPA			RLEP			RMEP			RRAD			RUL			RUFIN			LASI			RASI			USACR			LSACR			RSACR			LTHI1			LTHI2			LTHI3			LTHI4			LLFC			LMFC			LTIB1			LTIB2			LTIB3			LTIB4			LLMAL			LHEE			LMT1			LMT2			LMT5			RTHI			RTHI2			RTHI3			RTHI4			RLFC			RMFC			RTIB1			RTIB2			RTIB3			RTIB4			RLMAL			RMMAL			RHEE			RMT1			RMT2			RMT5			
		X1	Y1	Z1	X2	Y2	Z2	X3	Y3	Z3	X4	Y4	Z4	X5	Y5	Z5	X6	Y6	Z6	X7	Y7	Z7	X8	Y8	Z8	X9	Y9	Z9	X10	Y10	Z10	X11	Y11	Z11	X12	Y12	Z12	X13	Y13	Z13	X14	Y14	Z14	X15	Y15	Z15	X16	Y16	Z16	X17	Y17	Z17	X18	Y18	Z18	X19	Y19	Z19	X20	Y20	Z20	X21	Y21	Z21	X22	Y22	Z22	X23	Y23	Z23	X24	Y24	Z24	X25	Y25	Z25	X26	Y26	Z26	X27	Y27	Z27	X28	Y28	Z28	X29	Y29	Z29	X30	Y30	Z30	X31	Y31	Z31	X32	Y32	Z32	X33	Y33	Z33	X34	Y34	Z34	X35	Y35	Z35	X36	Y36	Z36	X37	Y37	Z37	X38	Y38	Z38	X39	Y39	Z39	X40	Y40	Z40	X41	Y41	Z41	X42	Y42	Z42	X43	Y43	Z43	X44	Y44	Z44	X45	Y45	Z45	X46	Y46	Z46	X47	Y47	Z47	X48	Y48	Z48	X49	Y49	Z49	X50	Y50	Z50	X51	Y51	Z51	X52	Y52	Z52	X53	Y53	Z53	X54	Y54	Z54	X55	Y55	Z55	X56	Y56	Z56	X57	Y57	Z57	X58	Y58	Z58	X59	Y59	Z59	X60	Y60	Z60	

1171	5.850000000000001	-35.20130157470704	1726.85888671875	-907.992370605469	-168.4898986816407	1611.851684570313	-980.9121704101565	-179.86865234375	1608.821899414063	-836.5183715820315	-244.4745635986329	1513.232421875	-917.7195434570315	-347.0563659667969	1187.587890625	-916.543395996094	-85.46439361572267	1421.737182617188	-907.1093750000002	-121.138900756836	1468.289428710938	-1096.460083007813	-169.2253112792969	1345.895874023438	-1273.674682617188	-148.3699798583985	1300.2724609375	-1271.386474609375	-183.9641265869141	1297.762084960938	-1320.429321289063	-193.7844390869141	1236.935791015625	-1354.169799804688	-279.4778442382813	1238.9912109375	-1336.04248046875	-260.7395019531251	1026.934326171875	-1139.862548828125	-226.632797241211	970.130065917969	-1187.770874023438	-229.8132934570313	994.9299926757815	-1078.609375	-105.6165466308594	1469.904052734375	-723.0628051757814	-198.8208618164063	1351.8525390625	-545.9794311523439	-183.3641967773438	1304.35498046875	-548.5117187500001	-225.0354461669922	1299.633056640625	-505.9451599121095	-245.1386718750001	1236.492797851563	-480.6996459960939	-328.7717895507813	1245.619140625	-508.1601562500001	-312.0223693847657	1015.664489746094	-668.9415283203126	-258.8769531250001	971.4803466796877	-628.1746215820314	-257.5463562011719	1006.804321289063	-720.9501953125001	-200.3064117431641	962.3228149414065	-1036.304809570313	-222.3286743164063	972.507995605469	-771.6959228515627	-386.8252258300782	1093.142700195313	-915.7535400390627	-401.1420898437501	1067.6240234375	-945.5172119140627	-408.2092895507814	1064.769775390625	-890.450378417969	-256.2470397949219	786.1296386718752	-1145.180908203125	-202.2854766845704	724.2160644531251	-1166.829467773438	-156.6761627197266	739.5117797851564	-1161.755249023438	-212.7655334472657	663.5236816406251	-1165.659545898438	-141.8012390136719	529.2788696289064	-1178.901977539063	-119.707504272461	485.3170471191407	-1058.777099609375	-176.607406616211	298.7001342773438	-1148.180419921875	-228.2915802001954	280.4916992187501	-1219.441040039063	-198.9697723388672	262.4036560058594	-1189.076171875	-234.2834625244141	188.0785827636719	-1167.547119140625	-336.4304504394532	105.9469223022461	-1220.065551757813	-394.6678466796876	50.25782012939455	-1169.847900390625	-176.8478088378907	56.79520797729494	-1180.491333007813	-181.9513549804688	59.12211990356447	-1222.537963867188	-298.7418518066407	99.23625183105472	-1136.870361328125	-253.3460845947266	684.0082397460939	-644.0159301757814	-197.9470825195313	648.3237915039064	-620.1622314453126	-165.9753723144532	660.7604370117189	-620.6257934570314	-194.6558685302735	566.4288330078126	-624.1119995117189	-181.7296142578125	505.1524658203126	-610.8807983398439	-127.0737075805664	476.2792358398439	-723.0969848632814	-168.4741973876953	361.8044738769532	-612.0590209960939	-260.9485168457032	310.8446350097657	-592.2528686523439	-219.0253448486329	291.4873962402344	-603.5411987304689	-223.417465209961	246.3785400390626	-642.4906005859376	-355.3932495117188	100.1197052001953	-615.3181152343751	-308.6728820800782	93.45389556884767	-695.6553344726564	-407.927947998047	48.42403030395509	-683.9105834960939	-194.9538726806641	59.37677001953126	-604.3237915039064	-209.9678955078126	60.74035263061525	-570.1077270507814	-239.3793334960938	41.75039672851563	-527.5968627929689	
1172	5.855	-35.95175170898438	1730.840576171875	-908.2410888671877	-169.1703033447266	1615.5234375	-981.3311767578127	-181.1541442871094	1611.833129882813	-836.7595825195315	-245.193832397461	1516.723266601563	-917.7951660156252	-347.1472778320313	1191.191162109375	-916.2566528320315	-85.90161895751955	1425.725341796875	-907.2077636718752	-121.7442245483399	1472.1494140625	-1096.362915039063	-169.75341796875	1349.57080078125	-1273.654174804688	-148.8641052246094	1304.240600585938	-1271.657836914063	-184.7480621337891	1301.65771484375	-1320.483520507813	-194.0765075683594	1240.705322265625	-1354.159912109375	-279.8437805175782	1242.478637695313	-1335.982421875	-260.8361511230469	1030.471069335938	-1139.820434570313	-226.2562255859376	973.8682861328127	-1187.517578125	-229.7467651367188	998.8381347656252	-1078.579467773438	-106.2943725585938	1474.113525390625	-723.1245727539064	-199.5389251708985	1356.19189453125	-545.9849243164064	-184.1248321533203	1308.775634765625	-548.3587646484376	-225.9064941406251	1303.779907226563	-505.9542236328126	-245.9493713378907	1240.60791015625	-480.6920166015626	-329.5084533691407	1249.757202148438	-508.3109130859376	-312.1036987304688	1019.676330566406	-668.8227539062501	-258.9744262695313	975.8248291015627	-627.8775634765626	-257.6261596679688	1010.651916503906	-721.0427856445314	-199.9464721679688	965.8651123046877	-1036.419067382813	-221.6103973388672	977.177429199219	-771.5897216796877	-386.8619384765626	1096.930541992188	-915.7296142578127	-401.1319885253907	1071.13623046875	-945.453308105469	-407.903289794922	1068.338745117188	-890.396179199219	-256.8334045410157	788.5408325195315	-1144.514282226563	-204.5844879150391	726.6646728515626	-1166.703857421875	-158.1368560791016	741.3230590820314	-1161.397583007813	-214.8118438720704	665.6532592773439	-1164.716186523438	-145.013427734375	530.9216308593751	-1177.760498046875	-123.4497146606446	487.0493774414064	-1057.86376953125	-178.1882476806641	299.7976989746094	-1147.14306640625	-230.1481018066407	281.5926208496094	-1218.8349609375	-200.3384094238282	263.4610900878907	-1188.575439453125	-235.6870269775391	188.8103485107422	-1167.372436523438	-336.7317199707032	105.9821929931641	-1220.071899414063	-394.7201538085939	50.26901626586915	-1169.905395507813	-176.904052734375	56.72277450561525	-1180.445556640625	-181.9180297851563	59.16078948974611	-1222.477905273438	-298.9862365722657	99.34332275390628	-1136.827880859375	-255.2124481201172	686.6097412109376	-644.5385742187501	-200.4668273925782	650.3324584960939	-620.9359741210939	-168.3080749511719	662.2108154296876	-621.2094726562501	-197.8952636718751	568.3405761718751	-624.9357299804689	-185.0497131347657	506.7929687500001	-611.7095947265626	-130.7046051025391	477.5679931640626	-723.9343261718751	-170.9282379150391	363.2454223632813	-612.6539916992189	-262.9964599609376	311.7875976562501	-592.5628662109376	-220.7666168212891	292.5325622558594	-603.6886596679689	-224.4822082519532	247.0992126464844	-642.4428100585939	-355.8171691894532	100.2442474365235	-614.9758300781251	-309.1461486816407	93.69646453857423	-695.3560791015626	-408.2834777832032	48.56146621704103	-683.5198364257814	-194.9718322753907	59.46334075927736	-604.2826538085939	-210.2100219726563	60.7672691345215	-570.0716552734376	-239.5466308593751	41.87470245361329	-527.5532836914064	
1173	5.86	-36.64975738525391	1734.44677734375	-908.5739746093752	-169.905014038086	1619.789184570313	-981.7037353515627	-181.904052734375	1615.933227539063	-836.7882080078127	-245.9030151367188	1520.687133789063	-917.7871093750002	-347.1821289062501	1194.689086914063	-916.0749511718752	-86.37808990478517	1429.751098632813	-907.1851806640627	-122.6184310913086	1475.9599609375	-1096.380981445313	-170.5002136230469	1353.32568359375	-1273.683471679688	-149.2383270263672	1308.0302734375	-1271.81884765625	-185.4152984619141	1305.576538085938	-1320.557739257813	-194.2119598388672	1244.1455078125	-1353.996337890625	-280.1083679199219	1246.077392578125	-1335.930908203125	-260.8113403320313	1034.117065429688	-1139.774291992188	-226.0997924804688	977.2994384765627	-1187.428588867188	-229.6447448730469	1002.159423828125	-1078.349853515625	-106.8694229125977	1478.312866210938	-722.9763793945314	-200.1772766113282	1360.56103515625	-545.8590698242189	-184.9811096191407	1312.645629882813	-548.3511352539064	-226.6916198730469	1308.074462890625	-506.0498962402345	-246.7738800048829	1244.9873046875	-480.5798950195314	-330.2916564941407	1254.013793945313	-508.3771057128907	-312.0237731933594	1023.700805664063	-668.8505859375001	-259.0411376953126	979.8557739257815	-627.6370239257814	-257.6605834960938	1014.481994628906	-721.1055297851564	-199.665267944336	969.2651367187502	-1036.481201171875	-221.8533477783204	980.0155029296877	-771.4382934570315	-386.8460693359376	1100.34814453125	-915.6331787109377	-400.8362426757814	1074.798828125	-945.3389892578127	-407.8463134765626	1071.756591796875	-890.2625122070315	-257.8471374511719	791.1612548828127	-1144.090942382813	-205.374984741211	728.0862426757814	-1165.584838867188	-160.486801147461	743.1835937500001	-1160.876098632813	-217.0744018554688	667.7974853515626	-1164.028076171875	-148.2807312011719	532.8164672851564	-1176.650146484375	-127.1740493774414	488.4487915039064	-1056.676025390625	-180.2292175292969	300.8618164062501	-1146.497192382813	-231.8295440673829	282.3585815429688	-1218.37060546875	-202.1106872558594	264.6848449707032	-1188.113525390625	-236.5502166748047	189.6977081298828	-1167.044677734375	-336.9953308105469	105.9679565429688	-1220.017822265625	-394.7540588378907	50.14282608032228	-1169.966430664063	-175.3302307128907	58.3466033935547	-1181.141479492188	-181.9631958007813	59.46073150634767	-1222.339111328125	-299.2503967285157	99.45989990234378	-1136.771484375	-257.3352355957032	688.8390502929689	-645.2585449218751	-202.7886199951172	652.3324584960939	-621.4505004882814	-170.6162872314453	664.5125122070314	-621.6042480468751	-201.0415954589844	570.0670776367189	-625.8335571289064	-188.5220794677735	508.379119873047	-612.6005859375001	-134.4277496337891	479.1376953125001	-724.9901123046876	-173.3582763671875	364.7412414550782	-613.1966552734376	-264.8003845214844	312.5577087402344	-592.8496704101564	-222.6066131591797	293.8986816406251	-604.1084594726564	-226.1280975341797	248.2518157958985	-642.7507324218751	-356.2589721679688	100.3839874267578	-614.7089843750001	-309.4236145019532	94.03285980224611	-695.0682373046876	-408.4541931152345	48.62477874755861	-683.1694946289064	-195.0292663574219	59.57137680053712	-604.2487792968751	-210.2523803710938	60.77443695068361	-570.0042724609376	-239.5582122802735	41.82978439331055	-527.4755859375001	
1174	5.865	-37.72124481201173	1738.631469726563	-908.9073486328127	-170.936767578125	1623.654907226563	-981.6588134765627	-182.8062133789063	1619.622680664063	-837.0886840820315	-246.1517944335938	1523.511108398438	-918.0510253906252	-347.2493591308594	1198.212158203125	-915.8370361328127	-86.94988250732423	1433.679809570313	-907.2500000000002	-123.436508178711	1479.823974609375	-1096.24755859375	-171.0543212890625	1357.078002929688	-1273.652465820313	-150.6224975585938	1312.263671875	-1272.181030273438	-185.9707641601563	1309.248779296875	-1320.73583984375	-194.7047119140626	1247.747436523438	-1354.1201171875	-280.4304809570313	1249.49072265625	-1335.811157226563	-260.6331176757813	1037.632202148438	-1139.77197265625	-226.0632019042969	980.9966430664065	-1187.52587890625	-229.6338195800782	1005.587219238281	-1078.324951171875	-107.5643157958985	1482.27197265625	-723.1368408203126	-201.1557159423829	1364.412719726563	-545.9600830078126	-185.6216888427735	1317.337036132813	-548.4284057617189	-227.4526977539063	1312.223266601563	-506.0339965820314	-247.5322418212891	1249.215087890625	-480.4451293945314	-331.0782165527344	1258.010864257813	-508.4381408691407	-312.1716003417969	1027.453979492188	-668.7176513671876	-259.1320495605469	983.6658935546877	-627.3263549804689	-257.4421081542969	1018.452331542969	-720.8217163085939	-199.3593292236329	972.7974243164065	-1036.258056640625	-220.8960418701172	984.9297485351565	-771.075622558594	-386.5686035156251	1103.819580078125	-915.484313964844	-400.5029296875001	1077.838012695313	-945.103698730469	-407.6579589843751	1075.448120117188	-890.1345825195315	-259.4934387207032	794.122741699219	-1143.832885742188	-207.0667724609376	730.2405395507814	-1165.105346679688	-161.9985504150391	744.8940429687501	-1160.276733398438	-219.4193572998047	669.9598388671876	-1162.922607421875	-151.4705352783203	534.3220825195314	-1175.623046875	-131.0727844238282	490.1069335937501	-1055.713012695313	-182.3320007324219	302.2837524414063	-1145.836059570313	-233.3435516357422	283.2819213867188	-1217.894775390625	-203.5178222656251	265.9346618652344	-1187.681640625	-237.2494506835938	190.5964660644532	-1166.544189453125	-336.6390686035157	105.6584548950196	-1219.98779296875	-394.7731323242189	50.03943252563478	-1170.022583007813	-175.2865142822266	58.30360794067384	-1181.05126953125	-181.8225708007813	59.30797195434572	-1222.279296875	-299.5148315429688	99.60559844970706	-1136.7646484375	-259.4386901855469	691.2535400390626	-645.8137207031251	-205.0370178222657	654.1547851562501	-622.3159790039064	-173.0286254882813	665.7648925781251	-622.3042602539064	-204.2284240722657	571.9093017578126	-626.6722412109376	-191.8454284667969	509.8265075683595	-613.6107788085939	-139.0521545410157	480.7834472656251	-726.4572143554689	-175.8096313476563	366.3833312988282	-613.9157104492189	-266.7700805664063	313.4993286132813	-593.2138671875001	-224.316635131836	294.8700256347657	-604.4707641601564	-227.4503631591797	249.2538757324219	-642.5396728515626	-356.6768493652344	100.5431137084961	-614.3380126953126	-309.8296508789063	94.29263305664064	-694.7668457031251	-408.7597045898439	48.77585220336915	-682.7395019531251	-195.2370910644532	59.55104827880861	-604.1749267578126	-210.3722534179688	60.72061157226564	-569.9550781250001	-239.5546417236329	41.77130508422852	-527.3652343750001	
